# xmcd
#
# Track frame offsets:
#	150
#	12662
#	27538
#	41763
#	53365
#	71794
#	84741
#	99489
#	113935
#	126992
#
# Disc length: 1921 seconds
#
# Revision: 0
# Processed by: cddbd v1.5.2PL0 Copyright (c) Steve Scherf et al.
# Submitted via: EZCDAudioConverter 6.0.5.1
#
DISCID=8b077f0a
DTITLE=Marie-Céleste Babin - Papa, Toi Mon Idole
DYEAR=1900
DGENRE=Country
TTITLE0=Aîko Aîko
TTITLE1=Une Rose Pour Maman
TTITLE2=Étoile De Mes Rêves
TTITLE3=Tu Sais Grand-Maman
TTITLE4=Danser Pour T'oublier
TTITLE5=Jambalaya
TTITLE6=C'est Mon Histoire
TTITLE7=Le Marie-Carole
TTITLE8=Papa, Toi Mon Idole
TTITLE9=L'Amour De Ma Vie
EXTD=
EXTT0=
EXTT1=
EXTT2=
EXTT3=
EXTT4=
EXTT5=
EXTT6=
EXTT7=
EXTT8=
EXTT9=
PLAYORDER=
